<?xml version="1.0" encoding="UTF-8" standalone="no"?>
<!DOCTYPE svg PUBLIC "-//W3C//DTD SVG 1.1//EN" "http://www.w3.org/Graphics/SVG/1.1/DTD/svg11.dtd">
<svg xmlns:dc="http://purl.org/dc/elements/1.1/" version="1.1" xmlns="http://www.w3.org/2000/svg" xmlns:xl="http://www.w3.org/1999/xlink" viewBox="751 24 486 643" width="486" height="643">
  <defs>
    <clipPath id="artboard_clip_path">
      <path d="M 751 24 L 1237 24 L 1237 667 L 751 667 Z"/>
    </clipPath>
    <marker orient="auto" overflow="visible" markerUnits="strokeWidth" id="FilledArrow_Marker" stroke-linejoin="miter" stroke-miterlimit="10" viewBox="-1 -4 10 8" markerWidth="10" markerHeight="8" color="black">
      <g>
        <path d="M 8 0 L 0 -3 L 0 3 Z" fill="currentColor" stroke="currentColor" stroke-width="1"/>
      </g>
    </marker>
  </defs>
  <g id="Canvas_1" fill="none" fill-opacity="1" stroke-dasharray="none" stroke="none" stroke-opacity="1">
    <title>Canvas 1</title>
    <rect fill="white" x="751" y="24" width="486" height="643"/>
    <g id="Canvas_1_Layer_1" clip-path="url(#artboard_clip_path)">
      <title>Layer 1</title>
      <g id="Graphic_2">
        <rect x="764" y="141" width="236.5" height="49" fill="white"/>
        <rect x="764" y="141" width="236.5" height="49" stroke="black" stroke-linecap="round" stroke-linejoin="round" stroke-width="1"/>
        <text transform="translate(769 156.276)" fill="black">
          <tspan font-family="Helvetica Neue" font-size="16" fill="black" x="60.506" y="15">Source .ts files</tspan>
        </text>
      </g>
      <g id="Graphic_3">
        <rect x="764" y="190" width="236.5" height="49" fill="white"/>
        <rect x="764" y="190" width="236.5" height="49" stroke="black" stroke-linecap="round" stroke-linejoin="round" stroke-width="1"/>
        <text transform="translate(769 205.276)" fill="black">
          <tspan font-family="Helvetica Neue" font-size="16" fill="black" x="36.642" y="15">type definitions (.d.ts)</tspan>
        </text>
      </g>
      <g id="Graphic_4">
        <rect x="764" y="360" width="236.5" height="49" fill="white"/>
        <rect x="764" y="360" width="236.5" height="49" stroke="black" stroke-linecap="round" stroke-linejoin="round" stroke-width="1"/>
        <text transform="translate(769 375.276)" fill="black">
          <tspan font-family="Helvetica Neue" font-size="16" fill="black" x="65.394" y="15">.tsconfig.json</tspan>
        </text>
      </g>
      <g id="Graphic_5">
        <rect x="764" y="584" width="236.5" height="49" fill="white"/>
        <rect x="764" y="584" width="236.5" height="49" stroke="black" stroke-linecap="round" stroke-linejoin="round" stroke-width="1"/>
        <text transform="translate(769 599.276)" fill="black">
          <tspan font-family="Helvetica Neue" font-size="16" fill="black" x="61.098" y="15">rollup.config.js</tspan>
        </text>
      </g>
      <g id="Graphic_6">
        <rect x="764" y="35" width="236.5" height="49" fill="white"/>
        <rect x="764" y="35" width="236.5" height="49" stroke="black" stroke-linecap="round" stroke-linejoin="round" stroke-width="1"/>
        <text transform="translate(769 50.276)" fill="black">
          <tspan font-family="Helvetica Neue" font-size="16" fill="black" x="60.49" y="15">node_modules</tspan>
        </text>
      </g>
      <g id="Graphic_7">
        <rect x="764" y="275" width="236.5" height="49" fill="white"/>
        <rect x="764" y="275" width="236.5" height="49" stroke="black" stroke-linecap="round" stroke-linejoin="round" stroke-width="1"/>
        <text transform="translate(769 290.276)" fill="black">
          <tspan font-family="Helvetica Neue" font-size="16" fill="black" x="65.538" y="15">package.json</tspan>
        </text>
      </g>
      <g id="Graphic_10">
        <path d="M 1094.7284 657.3529 L 1074.7315 657.0038 L 1077.009 526.5237 L 1097.006 526.87274 Z" fill="white"/>
        <path d="M 1094.7284 657.3529 L 1074.7315 657.0038 L 1077.009 526.5237 L 1097.006 526.87274 Z" stroke="black" stroke-linecap="round" stroke-linejoin="round" stroke-width="1"/>
        <text transform="translate(1076.2246 615.9256) rotate(-89)" fill="black">
          <tspan font-family="Helvetica Neue" font-size="16" fill="black" x="42632564e-21" y="15">source</tspan>
        </text>
      </g>
      <g id="Graphic_13">
        <path d="M 1069.997 657.8292 L 1050 657.4801 L 1053.5253 455.51414 L 1073.5223 455.8632 Z" fill="white"/>
        <path d="M 1069.997 657.8292 L 1050 657.4801 L 1053.5253 455.51414 L 1073.5223 455.8632 Z" stroke="black" stroke-linecap="round" stroke-linejoin="round" stroke-width="1"/>
        <text transform="translate(1052.2075 575.4758) rotate(-89)" fill="black">
          <tspan font-family="Helvetica Neue" font-size="16" fill="black" x="7531753e-19" y="15">tasks</tspan>
        </text>
      </g>
      <g id="Graphic_14">
        <path d="M 1095.9102 520.35286 L 1075.9133 520.0038 L 1077.009 457.2286 L 1097.006 457.57767 Z" fill="white"/>
        <path d="M 1095.9102 520.35286 L 1075.9133 520.0038 L 1077.009 457.2286 L 1097.006 457.57767 Z" stroke="black" stroke-linecap="round" stroke-linejoin="round" stroke-width="1"/>
        <text transform="translate(1076.9655 504.1874) rotate(-89)" fill="black">
          <tspan font-family="Helvetica Neue" font-size="16" fill="black" x="0" y="15">type</tspan>
        </text>
      </g>
      <g id="Graphic_15">
        <path d="M 1122.5857 575.8653 L 1102.5887 575.5162 L 1103.4439 526.5237 L 1123.4408 526.87274 Z" fill="white"/>
        <path d="M 1122.5857 575.8653 L 1102.5887 575.5162 L 1103.4439 526.5237 L 1123.4408 526.87274 Z" stroke="black" stroke-linecap="round" stroke-linejoin="round" stroke-width="1"/>
        <text transform="translate(1103.5671 563.92754) rotate(-89)" fill="black">
          <tspan font-family="Helvetica Neue" font-size="16" fill="black" x="6394885e-19" y="15">elm</tspan>
        </text>
      </g>
      <g id="Graphic_16">
        <path d="M 1122.0206 657.5824 L 1102.0236 657.23334 L 1103.4439 575.8653 L 1123.4408 576.2143 Z" fill="white"/>
        <path d="M 1122.0206 657.5824 L 1102.0236 657.23334 L 1103.4439 575.8653 L 1123.4408 576.2143 Z" stroke="black" stroke-linecap="round" stroke-linejoin="round" stroke-width="1"/>
        <text transform="translate(1102.8887 652.1334) rotate(-89)" fill="black">
          <tspan font-family="Helvetica Neue" font-size="16" fill="black" x="0" y="15">commons</tspan>
        </text>
      </g>
      <g id="Line_17">
        <path d="M 1000.5 165.5 C 1053.0781 173.66585 1066.0256 208.33333 1075.9133 221.15385 C 1085.8009 233.97436 1116.0256 271.15385 1117 324 C 1117.9744 376.84615 1119.9316 419.576 1114.7436 457.2286 C 1111.8037 478.56537 1105.3991 506.14113 1098.9978 533.3076" marker-end="url(#FilledArrow_Marker)" stroke="black" stroke-linecap="round" stroke-linejoin="round" stroke-dasharray="1.0,4.0" stroke-width="1"/>
      </g>
      <g id="Line_18">
        <path d="M 1000.5 214.5 C 1052.3255 219.03385 1066.0985 260.89744 1073.5223 280.1282 C 1078.9153 304.5499 1086.438 354.79487 1086.5385 375 C 1086.2595 387.18867 1086.3614 419.38044 1086.4382 447.49256" marker-end="url(#FilledArrow_Marker)" stroke="black" stroke-linecap="round" stroke-linejoin="round" stroke-dasharray="1.0,4.0" stroke-width="1"/>
      </g>
      <g id="Graphic_19">
        <path d="M 1217.997 392.62057 L 1198 392.2715 L 1199.0171 334 L 1219.0141 334.34905 Z" fill="white"/>
        <path d="M 1217.997 392.62057 L 1198 392.2715 L 1199.0171 334 L 1219.0141 334.34905 Z" stroke="black" stroke-linecap="round" stroke-linejoin="round" stroke-width="1"/>
        <text transform="translate(1199.5871 380.81262) rotate(-91)" fill="black">
          <tspan font-family="Helvetica Neue" font-size="16" fill="black" x="0" y="15">main</tspan>
        </text>
      </g>
      <g id="Graphic_20">
        <path d="M 1217.5879 324 L 1197.591 323.65095 L 1199.0171 241.94628 L 1219.0141 242.29533 Z" fill="white"/>
        <path d="M 1217.5879 324 L 1197.591 323.65095 L 1199.0171 241.94628 L 1219.0141 242.29533 Z" stroke="black" stroke-linecap="round" stroke-linejoin="round" stroke-width="1"/>
        <text transform="translate(1199.5456 309.81006) rotate(-91)" fill="black">
          <tspan font-family="Helvetica Neue" font-size="16" fill="black" x="29132252e-20" y="15">module</tspan>
        </text>
      </g>
      <g id="Line_21">
        <path d="M 1123.373 530.7629 C 1146.1876 477.53163 1171.1562 371.2834 1194.1937 312.5692" marker-end="url(#FilledArrow_Marker)" stroke="black" stroke-linecap="round" stroke-linejoin="round" stroke-dasharray="1.0,4.0" stroke-width="1"/>
      </g>
      <g id="Line_22">
        <line x1="1123.218" y1="588.9791" x2="1198.0212" y2="391.055" stroke="black" stroke-linecap="round" stroke-linejoin="round" stroke-width="1"/>
      </g>
      <g id="Line_23">
        <line x1="1000.5" y1="299.5" x2="1198.2871" y2="283.76968" stroke="black" stroke-linecap="round" stroke-linejoin="round" stroke-width="1"/>
      </g>
      <g id="Line_24">
        <line x1="1000.5" y1="299.5" x2="1198.5588" y2="360.25846" stroke="black" stroke-linecap="round" stroke-linejoin="round" stroke-width="1"/>
      </g>
      <g id="Line_25">
        <line x1="1000.5" y1="608.5" x2="1051.6097" y2="565.26" stroke="black" stroke-linecap="round" stroke-linejoin="round" stroke-width="1"/>
      </g>
      <g id="Line_26">
        <path d="M 882.25 84 C 882.25 115.49635 882.25 108.05706 882.25 131.09708" marker-end="url(#FilledArrow_Marker)" stroke="black" stroke-linecap="round" stroke-linejoin="round" stroke-dasharray="1.0,4.0" stroke-width="1"/>
      </g>
      <g id="Graphic_27">
        <rect x="764" y="493" width="236.5" height="49" fill="white"/>
        <rect x="764" y="493" width="236.5" height="49" stroke="black" stroke-linecap="round" stroke-linejoin="round" stroke-width="1"/>
        <text transform="translate(769 508.276)" fill="black">
          <tspan font-family="Helvetica Neue" font-size="16" fill="black" x="44.354" y="15">.tsconfig.eslint.json</tspan>
        </text>
      </g>
      <g id="Graphic_28">
        <rect x="764" y="436" width="236.5" height="30" fill="white"/>
        <rect x="764" y="436" width="236.5" height="30" stroke="black" stroke-linecap="round" stroke-linejoin="round" stroke-width="1"/>
        <text transform="translate(778.386 441.776)" fill="black">
          <tspan font-family="Helvetica Neue" font-size="16" fill="black" x="0" y="15">typescript-eslint/eslint-plugin</tspan>
        </text>
      </g>
      <g id="Line_29">
        <line x1="882.25" y1="409" x2="882.25" y2="426.1" marker-end="url(#FilledArrow_Marker)" stroke="black" stroke-linecap="round" stroke-linejoin="round" stroke-width="1"/>
      </g>
      <g id="Line_30">
        <line x1="882.25" y1="466" x2="882.25" y2="483.1" marker-end="url(#FilledArrow_Marker)" stroke="black" stroke-linecap="round" stroke-linejoin="round" stroke-width="1"/>
      </g>
    </g>
  </g>
</svg>
